# xmcd
#
# Track frame offsets:
#	183
#	15588
#	32593
#	47950
#	67328
#	84573
#	101258
#	116380
#	138285
#	147378
#	164713
#	184548
#
# Disc length: 2680 seconds
#
# Revision: 5
# Processed by: cddbd v1.5.2PL0 Copyright (c) Steve Scherf et al.
# Submitted via: audiograbber 1.83.01
#
DISCID=a30a760c
DTITLE=Various Artist - New Country - June 1994
DYEAR=1994
DGENRE=Country
TTITLE0=Hal Ketchum - (Tonight We Just Might) Fall In Love Again
TTITLE1=Monte Warden - Feel Better
TTITLE2=Tracy Byrd - No Ordinary Man
TTITLE3=Travis Tritt - Foolish Pride
TTITLE4=Confederate Railroad - I Am Just A Rebel
TTITLE5=Nitty Gritty Dirt Band - Cupid's Got A Gun
TTITLE6=John Michael Montgomery - She Don't Need A Band To Dance
TTITLE7=The Health and Happiness Show - Sinner's Lullaby
TTITLE8=The Carpetbaggers - Sober Again
TTITLE9=Willie Nelson - Moonlight Becomes You
TTITLE10=Hal Ketchum - Drive On
TTITLE11=Marty Brown - I Love Only You
EXTD=
EXTT0=
EXTT1=
EXTT2=
EXTT3=
EXTT4=
EXTT5=
EXTT6=
EXTT7=
EXTT8=
EXTT9=
EXTT10=
EXTT11=
PLAYORDER=
